<svg xmlns="http://www.w3.org/2000/svg" viewBox="0 0 64 64" width="64" height="64">
  <!-- Dark blue background -->
  <rect width="64" height="64" fill="#1e3a8a"/>
  
  <!-- Golden diamond outline -->
  <path d="M32 8 L48 32 L32 56 L16 32 Z" fill="none" stroke="#fbbf24" stroke-width="2"/>
  
  <!-- Top row hexagons -->
  <path d="M24 20 L28 18 L32 20 L32 28 L28 30 L24 28 Z" fill="#fbbf24"/>
  <path d="M32 20 L36 18 L40 20 L40 28 L36 30 L32 28 Z" fill="#fbbf24"/>
  
  <!-- Bottom row hexagons -->
  <path d="M24 36 L28 34 L32 36 L32 44 L28 46 L24 44 Z" fill="#fbbf24"/>
  <path d="M32 36 L36 34 L40 36 L40 44 L36 46 L32 44 Z" fill="#fbbf24"/>
  
  <!-- Connection lines -->
  <!-- Horizontal connections in top row -->
  <line x1="32" y1="24" x2="32" y2="24" stroke="#fbbf24" stroke-width="2"/>
  
  <!-- Horizontal connections in bottom row -->
  <line x1="32" y1="40" x2="32" y2="40" stroke="#fbbf24" stroke-width="2"/>
  
  <!-- Vertical connections -->
  <line x1="28" y1="26" x2="28" y2="38" stroke="#fbbf24" stroke-width="2"/>
  <line x1="36" y1="26" x2="36" y2="38" stroke="#fbbf24" stroke-width="2"/>
</svg>
